<?xml version="1.0" standalone="no"?>
<!DOCTYPE svg PUBLIC "-//W3C//DTD SVG 20010904//EN"
 "http://www.w3.org/TR/2001/REC-SVG-20010904/DTD/svg10.dtd">
<svg version="1.0" xmlns="http://www.w3.org/2000/svg"
 width="311.000000pt" height="295.000000pt" viewBox="0 0 311.000000 295.000000"
 preserveAspectRatio="xMidYMid meet">
<metadata>
Created by potrace 1.16, written by Peter Selinger 2001-2019
</metadata>
<g transform="translate(0.000000,295.000000) scale(0.100000,-0.100000)"
fill="#ffffff" stroke="none">
<path d="M1507 2765 c-15 -8 -44 -17 -63 -21 -20 -4 -41 -15 -47 -25 -7 -11
-19 -19 -28 -19 -9 0 -31 -10 -50 -23 -19 -12 -48 -29 -66 -36 -17 -7 -34 -19
-36 -26 -3 -7 -18 -15 -32 -19 -15 -4 -44 -18 -64 -32 -19 -13 -41 -24 -48
-24 -7 0 -18 -9 -25 -20 -7 -11 -23 -20 -35 -20 -12 0 -34 -11 -50 -24 -16
-14 -41 -28 -55 -31 -14 -4 -36 -18 -49 -31 -12 -13 -31 -24 -41 -24 -10 0
-27 -9 -38 -20 -11 -11 -31 -22 -45 -26 -14 -3 -31 -14 -38 -24 -6 -9 -26 -20
-43 -24 -18 -4 -40 -16 -49 -26 -9 -10 -30 -22 -45 -25 -15 -3 -38 -17 -50
-31 -13 -13 -31 -24 -41 -24 -10 0 -21 -10 -24 -21 -4 -12 -7 -303 -8 -648 -1
-590 1 -629 18 -658 12 -20 31 -35 56 -42 21 -6 44 -20 52 -31 7 -10 26 -22
42 -26 17 -4 38 -15 47 -25 9 -9 31 -20 48 -24 16 -4 30 -11 30 -16 0 -6 17
-17 37 -26 21 -8 48 -23 61 -33 13 -10 36 -22 52 -25 17 -4 30 -12 30 -18 0
-11 44 -37 63 -37 5 0 22 -11 39 -25 16 -14 40 -25 54 -25 13 0 24 -6 24 -13
0 -6 23 -22 50 -35 28 -13 50 -27 50 -32 0 -6 8 -10 18 -10 9 0 37 -14 61 -30
24 -17 49 -30 56 -30 7 0 20 -9 30 -20 10 -11 33 -22 51 -26 20 -4 36 -14 39
-24 12 -36 149 -34 178 3 7 8 25 18 40 21 15 4 37 18 49 31 12 14 31 25 44 25
12 0 27 7 35 16 7 9 30 22 50 31 21 8 40 21 43 28 3 8 21 17 41 21 19 3 40 14
45 23 5 10 27 23 48 29 22 7 45 19 52 27 7 8 20 15 29 15 10 0 33 14 51 30 18
17 41 30 50 30 9 0 26 9 37 20 12 10 33 22 47 26 15 3 32 14 39 24 6 9 29 23
50 29 21 7 41 19 43 26 3 7 20 16 38 19 18 4 42 17 54 31 12 14 33 25 47 25
17 0 32 11 50 37 l25 38 0 622 c0 380 -4 632 -10 647 -5 14 -16 26 -25 26 -8
0 -24 9 -35 20 -11 11 -32 23 -47 26 -16 4 -38 17 -50 30 -12 13 -34 26 -50
30 -15 4 -36 15 -46 25 -10 10 -30 22 -45 25 -15 4 -34 13 -42 21 -14 13 -36
26 -120 70 -19 10 -41 25 -47 34 -7 9 -29 20 -48 23 -20 4 -38 13 -41 21 -3 8
-22 19 -42 26 -21 6 -45 20 -55 30 -10 11 -24 19 -32 19 -9 0 -23 9 -32 20
-10 11 -32 23 -50 26 -19 4 -39 15 -47 25 -7 10 -28 24 -47 31 -19 6 -41 19
-49 29 -9 9 -37 20 -62 24 -26 4 -49 13 -52 21 -7 18 -14 17 -49 -1z m74 -177
c9 -10 25 -18 36 -18 11 0 32 -11 47 -25 15 -14 39 -28 53 -31 14 -4 34 -15
45 -26 10 -10 32 -21 48 -24 16 -4 31 -12 34 -20 3 -7 20 -20 38 -28 18 -8 44
-22 58 -30 14 -8 34 -17 45 -21 19 -6 18 -8 -10 -31 -16 -14 -43 -31 -60 -38
-16 -7 -41 -23 -54 -35 -13 -11 -30 -21 -37 -21 -7 0 -19 -8 -26 -18 -7 -10
-25 -22 -40 -26 -15 -3 -35 -15 -45 -25 -10 -10 -35 -26 -55 -34 -21 -9 -38
-20 -38 -26 0 -5 -13 -12 -30 -16 -16 -4 -37 -16 -45 -28 -12 -17 -15 -18 -20
-5 -3 8 -24 21 -46 28 -22 8 -45 22 -50 32 -5 10 -18 18 -28 18 -10 0 -31 11
-47 25 -16 14 -39 28 -52 31 -12 4 -27 14 -32 24 -5 10 -26 21 -45 24 -20 4
-38 13 -41 21 -3 8 -14 17 -25 20 -10 4 -37 22 -60 41 l-41 34 32 7 c19 3 35
13 37 24 3 10 19 20 39 24 19 3 42 14 52 24 9 10 34 24 55 32 20 7 37 19 37
26 0 8 13 16 29 19 16 4 39 15 49 25 11 10 32 21 46 25 15 3 32 14 39 24 23
33 78 32 108 -2z m-656 -348 c10 -11 28 -20 41 -20 13 0 31 -9 42 -20 10 -10
34 -26 55 -35 20 -8 37 -20 37 -25 0 -6 12 -15 26 -20 15 -6 39 -19 54 -30 16
-11 35 -20 43 -20 9 0 22 -9 30 -20 8 -11 29 -25 48 -32 19 -6 40 -20 47 -30
7 -10 19 -18 26 -18 7 0 30 -13 51 -30 21 -16 45 -30 53 -30 9 0 23 -7 33 -16
17 -15 20 -15 45 5 15 12 33 21 40 21 7 0 21 8 31 19 10 10 31 21 46 25 15 4
35 15 45 26 9 11 24 20 34 20 10 0 32 14 50 30 17 17 37 30 44 30 7 0 21 9 31
19 10 11 30 22 45 26 14 4 34 15 44 26 9 10 23 19 30 19 7 0 26 11 42 25 17
14 44 30 61 36 17 6 31 17 31 25 0 21 53 18 67 -5 6 -10 24 -21 38 -25 15 -4
36 -15 47 -26 11 -10 30 -21 43 -24 12 -3 37 -19 55 -36 l31 -29 -26 -7 c-14
-3 -31 -14 -38 -23 -6 -10 -27 -21 -46 -24 -19 -4 -40 -16 -48 -26 -7 -11 -26
-22 -42 -26 -16 -3 -39 -17 -51 -31 -13 -13 -31 -24 -40 -24 -9 0 -26 -9 -38
-20 -12 -11 -36 -23 -53 -27 -18 -3 -34 -14 -36 -24 -3 -10 -19 -20 -41 -24
-20 -4 -42 -15 -49 -25 -7 -10 -26 -21 -42 -25 -16 -3 -39 -17 -51 -31 -13
-13 -33 -24 -45 -24 -12 0 -30 -9 -40 -20 -9 -10 -32 -24 -50 -30 -18 -6 -36
-17 -38 -25 -3 -7 -20 -16 -37 -20 -17 -4 -40 -16 -50 -27 -17 -19 -20 -19
-26 -5 -3 9 -25 22 -48 28 -22 6 -49 20 -59 30 -10 11 -32 23 -49 26 -16 3
-32 12 -35 19 -2 6 -19 18 -36 25 -18 7 -41 20 -52 29 -11 10 -31 21 -43 25
-13 4 -32 15 -43 26 -10 10 -31 22 -46 25 -16 4 -33 15 -40 24 -6 9 -30 22
-52 29 -23 6 -41 16 -41 21 0 4 -15 13 -34 20 -18 6 -42 20 -51 30 -10 11 -29
20 -41 20 -14 0 -30 10 -39 24 -9 13 -30 26 -47 30 -17 3 -36 13 -42 21 -6 8
-29 21 -51 29 -22 8 -33 15 -24 15 9 1 25 12 35 26 10 14 27 25 37 25 10 0 29
11 42 24 13 13 37 27 54 31 16 3 37 15 47 26 22 24 36 24 59 -1z m-305 -290
c0 -4 19 -18 43 -30 60 -31 116 -63 157 -88 19 -12 42 -22 51 -22 9 0 19 -7
22 -15 4 -8 21 -21 39 -30 39 -18 99 -52 148 -83 19 -12 42 -22 50 -22 8 0 21
-9 27 -19 7 -11 27 -22 45 -26 18 -4 39 -16 45 -25 7 -10 25 -21 40 -25 35 -8
77 -56 60 -67 -7 -4 -20 -8 -29 -8 -10 0 -22 -8 -27 -18 -5 -10 -28 -24 -51
-31 -23 -7 -44 -18 -46 -26 -3 -8 -21 -17 -39 -21 -19 -3 -41 -15 -51 -25 -17
-19 -17 -19 -30 0 -8 10 -26 22 -41 26 -15 3 -34 14 -42 24 -9 10 -31 22 -49
26 -18 4 -36 13 -38 20 -3 7 -20 19 -37 26 -18 7 -47 24 -66 36 -19 13 -42 23
-51 23 -10 0 -20 7 -23 15 -4 8 -21 21 -39 29 -18 8 -44 22 -58 30 -14 8 -33
17 -42 20 -16 5 -18 21 -18 159 0 85 3 156 6 159 7 8 44 -2 44 -12z m1877
-153 c3 -186 -2 -247 -21 -247 -7 0 -30 -13 -51 -30 -21 -16 -44 -30 -51 -30
-7 0 -19 -8 -26 -18 -7 -10 -28 -24 -46 -30 -18 -6 -42 -22 -52 -34 -11 -13
-19 -19 -20 -15 0 10 -60 -24 -60 -34 0 -4 -13 -10 -30 -14 -16 -4 -36 -14
-42 -24 -7 -10 -26 -21 -41 -25 -16 -4 -40 -19 -53 -33 -13 -14 -24 -23 -24
-19 0 4 -13 -1 -30 -11 -16 -9 -30 -20 -30 -24 0 -4 -13 -10 -30 -14 -16 -4
-36 -15 -43 -26 -8 -10 -28 -22 -46 -25 -18 -4 -35 -13 -38 -21 -3 -7 -22 -22
-42 -32 -88 -45 -117 -62 -126 -75 -5 -7 -27 -18 -47 -25 -21 -7 -38 -16 -38
-21 0 -4 -20 -18 -45 -30 -25 -12 -45 -26 -45 -30 0 -5 -13 -11 -30 -15 -16
-4 -36 -15 -42 -24 -7 -10 -30 -23 -50 -30 -21 -7 -38 -16 -38 -21 0 -4 -20
-18 -45 -30 -25 -12 -45 -26 -45 -30 0 -5 -13 -11 -30 -15 -16 -4 -36 -15 -42
-24 -21 -30 -64 -32 -96 -5 -15 13 -35 27 -46 30 -10 3 -34 17 -53 30 -20 13
-43 24 -52 24 -9 0 -22 9 -28 19 -7 11 -25 22 -42 26 -16 3 -32 12 -35 20 -3
8 -23 19 -45 25 -38 10 -39 11 -28 39 8 23 21 32 54 42 24 6 43 17 43 24 0 7
15 16 33 19 19 3 44 17 57 31 13 14 32 25 42 25 10 0 26 8 36 18 10 9 34 25
55 34 20 10 37 22 37 27 0 4 20 14 45 21 25 7 45 16 45 21 0 4 20 17 45 28 25
11 45 24 45 29 0 5 18 14 41 21 22 7 42 18 45 26 3 8 19 17 35 20 16 4 35 15
41 24 7 10 27 21 44 25 18 4 40 16 50 27 9 10 25 19 34 19 9 0 32 14 50 30 18
17 44 30 57 30 13 0 23 4 23 9 0 5 21 19 46 31 25 13 48 28 50 35 3 7 20 16
39 19 18 4 39 13 45 21 7 9 32 24 56 35 24 10 44 24 44 29 0 6 12 14 28 17 15
4 43 18 62 31 19 12 40 23 47 23 6 0 18 9 25 19 8 11 31 22 51 26 21 4 42 15
47 25 5 9 23 20 39 23 17 4 41 18 53 32 12 14 29 25 38 25 9 0 26 9 37 20 12
10 33 22 47 26 15 3 32 14 39 24 11 16 55 31 67 22 3 -2 6 -76 7 -165z m-1859
-358 c6 -9 25 -20 41 -24 16 -3 32 -12 34 -20 3 -7 20 -16 37 -20 17 -4 42
-17 56 -30 14 -13 39 -27 55 -30 17 -4 35 -17 43 -33 13 -25 13 -27 -25 -44
-22 -9 -39 -22 -39 -28 0 -5 -8 -10 -19 -10 -10 0 -34 -11 -54 -24 -19 -13
-45 -27 -56 -31 -12 -4 -33 -17 -48 -31 -14 -13 -37 -24 -49 -24 -13 0 -24 -6
-24 -12 0 -9 -4 -8 -10 2 -11 17 -14 373 -3 383 10 11 46 -4 61 -24z m1858
-258 c1 -223 1 -227 -38 -235 -16 -3 -43 -17 -60 -31 -16 -14 -35 -25 -41 -25
-7 0 -25 -11 -41 -25 -16 -14 -37 -25 -46 -25 -9 0 -25 -8 -36 -17 -10 -10
-36 -26 -56 -35 -21 -10 -38 -22 -38 -28 0 -5 -8 -10 -17 -10 -10 0 -34 -10
-53 -22 -19 -12 -52 -30 -72 -40 -21 -9 -38 -21 -38 -27 0 -5 -13 -12 -29 -16
-15 -3 -37 -14 -47 -23 -11 -9 -36 -25 -56 -34 -21 -10 -38 -22 -38 -27 0 -5
-15 -12 -34 -15 -18 -4 -41 -15 -51 -26 -10 -11 -24 -20 -31 -20 -7 0 -26 -12
-43 -26 -17 -14 -44 -29 -60 -34 -38 -11 -106 5 -134 31 -12 11 -35 23 -50 26
-16 3 -31 12 -34 19 -2 7 -22 20 -44 28 -21 9 -39 19 -39 23 0 5 -14 14 -31
22 l-30 13 29 18 c16 10 33 23 36 29 4 6 16 11 27 11 11 0 30 10 43 23 12 12
39 30 59 39 20 10 37 22 37 27 0 5 13 12 29 16 16 3 35 13 42 21 6 8 31 23 55
34 24 10 44 23 44 29 0 5 16 15 35 21 19 6 35 15 35 20 0 4 18 15 39 23 22 9
42 21 46 26 3 6 25 19 49 30 24 10 47 24 50 30 4 6 23 18 42 26 19 8 34 18 34
23 0 5 13 12 30 15 16 4 38 15 49 26 10 10 29 22 40 26 12 4 33 17 48 31 14
13 34 24 44 24 10 0 20 8 24 19 3 10 19 21 35 24 16 4 38 15 48 25 11 11 30
22 44 25 13 4 37 18 52 32 15 14 33 25 41 25 8 0 20 8 27 19 13 18 43 31 63
26 6 -1 10 -71 11 -184z"/>
</g>
</svg>
